<svg width="54" height="54" viewBox="0 0 54 54" fill="none" xmlns="http://www.w3.org/2000/svg">
<g filter="url(#filter0_d_1060_494)">
<path d="M27.5076 42.3158C26.7881 42.0174 25.9794 42.0174 25.2599 42.3144C22.9784 43.2554 17.6526 45.4518 13.2962 47.25C12.1986 47.7023 10.935 47.4498 10.0953 46.6088C9.25697 45.7691 9.00587 44.5055 9.46082 43.4079C13.1922 34.3994 19.8747 18.2682 23.6102 9.25425C24.0651 8.15535 25.137 7.43985 26.325 7.43985C27.513 7.43985 28.5849 8.15535 29.0399 9.25425C32.7726 18.2614 39.4484 34.3751 43.1811 43.3877C43.6361 44.4866 43.385 45.7515 42.5439 46.5912C41.7029 47.4323 40.4379 47.6834 39.3404 47.2271C35.0231 45.4356 29.7689 43.2554 27.5076 42.3158Z" stroke="white" stroke-width="2" stroke-linecap="round" stroke-linejoin="round"/>
<path fill-rule="evenodd" clip-rule="evenodd" d="M27.5076 42.3158C26.7881 42.0174 25.9794 42.0174 25.2599 42.3144C22.9784 43.2554 17.6526 45.4518 13.2962 47.25C12.1986 47.7023 10.935 47.4498 10.0953 46.6088C9.25697 45.7691 9.00587 44.5055 9.46082 43.4079C13.1922 34.3993 19.8747 18.2682 23.6102 9.25425C24.0651 8.15535 25.137 7.43985 26.325 7.43985C27.513 7.43985 28.5849 8.15535 29.0399 9.25425C32.7726 18.2614 39.4484 34.375 43.1811 43.3876C43.6361 44.4865 43.385 45.7515 42.5439 46.5912C41.7029 47.4323 40.4379 47.6834 39.3404 47.2271C35.0231 45.4356 29.7689 43.2554 27.5076 42.3158Z" fill="#ff385c"/>
</g>
<path fill-rule="evenodd" clip-rule="evenodd" d="M26.325 7.43985C27.513 7.43985 28.5849 8.15535 29.0398 9.25425L43.1811 43.3876C43.636 44.4865 43.3849 45.7515 42.5439 46.5912C41.7028 47.4323 40.4379 47.6834 39.3403 47.2271L27.5076 42.3158C27.1296 42.1592 26.7259 42.0849 26.325 42.0917V7.43985Z" fill="#cc1a3e"/>
<defs>
<filter id="filter0_d_1060_494" x="4.23682" y="2.43985" width="44.1682" height="50.0319" filterUnits="userSpaceOnUse" color-interpolation-filters="sRGB">
<feFlood flood-opacity="0" result="BackgroundImageFix"/>
<feColorMatrix in="SourceAlpha" type="matrix" values="0 0 0 0 0 0 0 0 0 0 0 0 0 0 0 0 0 0 127 0" result="hardAlpha"/>
<feOffset/>
<feGaussianBlur stdDeviation="2"/>
<feComposite in2="hardAlpha" operator="out"/>
<feColorMatrix type="matrix" values="0 0 0 0 0 0 0 0 0 0 0 0 0 0 0 0 0 0 0.25 0"/>
<feBlend mode="normal" in2="BackgroundImageFix" result="effect1_dropShadow_1060_494"/>
<feBlend mode="normal" in="SourceGraphic" in2="effect1_dropShadow_1060_494" result="shape"/>
</filter>
</defs>
</svg>
